@startuml
'https://plantuml.com/state-diagram

scale 350 width


state Startside{
[*] --> Designcarport
FogKonto --> Kontooplysninger
Menu --> BrugerInfoForside

Menu --> LogOut
LogOut -->[*]
Menu --> Kontakt
state Designcarport{
CarportMedFladtTag --> BestilTilbud: Bredde og Længde
CarportMedFladtTag : udfyldmål
}
BestilTilbud --> TakForDinBestilling
state TakForDinBestilling {
GåTilbageTilForside:
}
TakForDinBestilling --> Startside




@enduml